# xmcd
#
# Track frame offsets: 
#        183
#        18838
#        37958
#        53343
#        69798
#        81980
#        94160
#        112848
#        126785
#        141113
#
# Disc length: 2069 seconds
#
# Revision: 4
# Processed by: cddbd v1.5.2PL0 Copyright (c) Steve Scherf et al.
# Submitted via: ExactAudioCopyFreeDBPlugin 1.0
#
DISCID=7008130a
DTITLE=Brenda Lee - Brenda Lee - Brenda Lee - WB 9 26439-2
DYEAR=1991
DGENRE=Country
TTITLE0=Once Love Makes A Fool Of You
TTITLE1=Love Is Fair
TTITLE2=Against My Will
TTITLE3=Lonely Too Long
TTITLE4=Some Of These Days
TTITLE5=You Better Do Better
TTITLE6=When He Leaves You
TTITLE7=A Little Unfair
TTITLE8=Standing Tall
TTITLE9=Your One And Only
EXTD=
EXTT0=
EXTT1=
EXTT2=
EXTT3=
EXTT4=
EXTT5=
EXTT6=
EXTT7=
EXTT8=
EXTT9=
PLAYORDER=
